<mxfile host="app.diagrams.net" agent="Mozilla/5.0 (Windows NT 10.0; Win64; x64) AppleWebKit/537.36 (KHTML, like Gecko) Chrome/137.0.0.0 Safari/537.36 Edg/137.0.0.0" version="27.1.3">
  <diagram name="第 1 页" id="SNnUAwdkBXaZDfroSAXm">
    <mxGraphModel dx="1546" dy="836" grid="1" gridSize="10" guides="1" tooltips="1" connect="1" arrows="1" fold="1" page="1" pageScale="1" pageWidth="1200" pageHeight="1920" math="0" shadow="0">
      <root>
        <mxCell id="0" />
        <mxCell id="1" parent="0" />
        <mxCell id="qFn1gYB5s_-sQzseoCl5-43" style="rounded=0;orthogonalLoop=1;jettySize=auto;html=1;endArrow=none;startFill=0;fontFamily=宋体;fontSize=14;" parent="1" source="qFn1gYB5s_-sQzseoCl5-1" target="qFn1gYB5s_-sQzseoCl5-3" edge="1">
          <mxGeometry relative="1" as="geometry" />
        </mxCell>
        <mxCell id="qFn1gYB5s_-sQzseoCl5-45" style="rounded=0;orthogonalLoop=1;jettySize=auto;html=1;endArrow=none;startFill=0;fontFamily=宋体;fontSize=14;" parent="1" source="qFn1gYB5s_-sQzseoCl5-1" target="qFn1gYB5s_-sQzseoCl5-2" edge="1">
          <mxGeometry relative="1" as="geometry" />
        </mxCell>
        <mxCell id="qFn1gYB5s_-sQzseoCl5-46" style="rounded=0;orthogonalLoop=1;jettySize=auto;html=1;endArrow=none;startFill=0;fontFamily=宋体;fontSize=14;" parent="1" source="qFn1gYB5s_-sQzseoCl5-1" target="qFn1gYB5s_-sQzseoCl5-21" edge="1">
          <mxGeometry relative="1" as="geometry" />
        </mxCell>
        <mxCell id="qFn1gYB5s_-sQzseoCl5-1" value="&lt;p class=&quot;MsoNormal&quot;&gt;&lt;span style=&quot;font-size: 12pt;&quot;&gt;电动车分类&lt;/span&gt;&lt;/p&gt;" style="rounded=0;whiteSpace=wrap;html=1;fontFamily=宋体;fontSize=14;" parent="1" vertex="1">
          <mxGeometry x="540" y="360" width="110" height="60" as="geometry" />
        </mxCell>
        <mxCell id="qFn1gYB5s_-sQzseoCl5-2" value="&lt;p class=&quot;MsoNormal&quot;&gt;&lt;span style=&quot;font-size: 12pt;&quot;&gt;电动车分类&lt;/span&gt;&lt;/p&gt;" style="ellipse;whiteSpace=wrap;html=1;fontFamily=宋体;fontSize=14;" parent="1" vertex="1">
          <mxGeometry x="430" y="365" width="90" height="50" as="geometry" />
        </mxCell>
        <mxCell id="qFn1gYB5s_-sQzseoCl5-3" value="&lt;p class=&quot;MsoNormal&quot;&gt;&lt;span style=&quot;font-size: 12pt;&quot;&gt;&lt;font face=&quot;宋体&quot;&gt;分类&lt;/font&gt; &lt;font face=&quot;宋体&quot;&gt;ID&lt;/font&gt;&lt;/span&gt;&lt;/p&gt;" style="ellipse;whiteSpace=wrap;html=1;fontFamily=宋体;fontSize=14;" parent="1" vertex="1">
          <mxGeometry x="550" y="290" width="90" height="50" as="geometry" />
        </mxCell>
        <mxCell id="qFn1gYB5s_-sQzseoCl5-21" value="&lt;p class=&quot;MsoNormal&quot;&gt;&lt;span style=&quot;font-size: 12pt;&quot;&gt;创建时间&lt;/span&gt;&lt;/p&gt;" style="ellipse;whiteSpace=wrap;html=1;fontFamily=宋体;fontSize=14;" parent="1" vertex="1">
          <mxGeometry x="660" y="360" width="90" height="50" as="geometry" />
        </mxCell>
      </root>
    </mxGraphModel>
  </diagram>
</mxfile>
